<svg width="158" height="158" viewBox="0 0 586 586" fill="none" xmlns="http://www.w3.org/2000/svg">
<path d="M274.632 103.584C278.773 89.5509 280.64 92.7033 268.545 83.4434C265.393 81.0306 261.724 79.1696 259.47 75.7079C260.744 73.3089 262.805 73.9849 264.514 73.9451C269.547 73.828 274.598 73.6483 279.616 73.9488C283.263 74.1673 285.186 72.608 286.497 69.3892C288.595 64.2362 289.627 58.6143 292.957 53.6709C296.37 55.6732 296.558 59.3463 297.759 62.3104C303.375 76.1786 299.553 73.5105 314.286 73.9036C318.863 74.0257 323.543 73.1493 327.976 74.6552C328.27 77.068 326.538 77.498 325.397 78.3427C321.464 81.2557 317.633 84.3454 313.499 86.9322C309.62 89.3597 309.152 92.5371 310.147 96.5771C311.477 101.976 312.632 107.42 314.026 113.573C307.392 111.59 302.248 108.518 297.404 105.015C294.185 102.687 291.597 102.579 288.391 105.044C284.394 108.118 280.028 110.695 275.843 113.519C274.852 114.187 273.945 114.988 272.307 113.998C271.873 110.54 273.749 107.36 274.632 103.584Z" fill="black"/>
<path d="M506.662 352.893C505.543 355.55 504.59 357.859 503.147 361.353C498.741 353.62 496.542 346.142 491.716 340.021C486.559 333.479 478.51 332.445 471.869 327.95C477.846 321.953 486.907 321.91 492.066 315.377C497.039 309.081 498.997 301.2 503.11 292.582C506.095 301.911 509.223 309.429 514.513 315.543C519.863 321.726 528.364 322.672 536.484 327.397C523.425 333.229 510.527 337.642 506.662 352.893Z" fill="black"/>
<path d="M96.5948 331.804C87.4475 334.728 84.2038 342.722 79.5916 351.888C74.5098 339.616 66.7966 331.894 54.9102 327.789C67.0691 323.445 75.7829 316.232 79.7381 303.243C83.0396 316.466 91.9759 322.95 103.445 326.563C102.25 330.486 99.1306 330.412 96.5948 331.804Z" fill="black"/>
<path d="M94.4686 197.97C93.3736 199.114 92.2456 199.241 91.7019 198.174C88.2709 191.446 83.5957 186.163 75.5947 184.015C84.1744 180.674 89.3053 174.698 92.9547 165.643C97.1014 173.924 100.995 180.851 110.641 183.038C103.775 187.648 97.2968 190.646 94.4686 197.97Z" fill="black"/>
<path d="M202.722 99.3244C196.449 100.307 190.406 96.4293 189.296 91.0721C187.81 83.9051 190.645 78.6113 197.091 76.5165C202.702 74.6931 208.908 77.5766 211.328 83.1316C213.665 88.4962 211.319 94.885 205.85 97.9586C204.974 98.4507 204.016 98.791 202.722 99.3244Z" fill="black"/>
<path d="M475.527 181.454C481.82 178.699 485.739 174.018 488.162 166.242C492.848 174.732 497.505 180.862 505.71 183.525C497.895 186.945 491.698 191.59 488.756 200.27C485.252 192.25 480.367 186.554 472.652 184.486C472.863 182.136 474.167 182.021 475.527 181.454Z" fill="black"/>
<path d="M57.0566 243.625C63.3788 247.131 64.153 248.933 61.0058 252.749C59.5771 254.481 58.035 257.044 55.2592 255.382C52.3572 253.644 51.2429 250.774 52.5116 247.469C53.2277 245.602 54.2963 243.741 57.0566 243.625Z" fill="black"/>
<path d="M530.804 254.698C527.793 255.491 526.192 254.126 525.398 251.827C524.534 249.328 524.561 246.78 526.447 244.646C527.813 243.101 529.554 242.484 531.389 243.586C534.059 245.191 534.34 247.958 534.116 250.732C533.97 252.534 532.865 253.835 530.804 254.698Z" fill="black"/>
<path d="M377.166 269.575C377.255 286.857 369.874 296.745 354.467 300.481C341.783 303.557 327.462 295.444 322.473 282.356C316.416 266.463 324.757 248.452 340.941 244.08C357.197 239.688 372.875 248.683 376.616 266.612C376.79 267.447 376.963 268.282 377.166 269.575ZM337.22 268.141C341.238 270.173 346.005 269.219 348.18 265.694C350.475 261.974 349.643 258.439 346.71 255.499C343.465 252.246 338.767 252.263 335.921 255.297C332.066 259.406 332.265 262.776 337.22 268.141Z" fill="black"/>
<path d="M212.839 258.426C219.808 246.279 229.813 241.113 242.998 243.402C254.602 245.417 262.714 252.445 265.587 264.07C270.103 282.338 260.062 296.583 243.231 300.82C230.231 304.093 213.709 292.956 210.772 278.31C209.465 271.794 209.651 265.047 212.839 258.426ZM231.644 253.578C229.719 252.814 227.961 253.7 226.318 254.399C222.962 255.826 220.702 258.247 221.519 262.292C222.462 266.963 226.604 270.603 230.285 269.806C234.372 268.921 237.314 266.512 237.472 261.856C237.601 258.042 235.741 255.394 231.644 253.578Z" fill="black"/>
<path d="M277.844 294.789C275.96 285.882 279.137 281.581 287.595 281.274C291.786 281.121 295.987 281.216 300.184 281.224C304.82 281.232 308.284 282.962 309.814 287.792C311.349 292.634 310.268 297.11 306.222 299.561C298.893 304.002 300.112 310.709 300.874 317.207C301.354 321.306 304.372 324.028 308.518 324.072C312.701 324.116 315.931 321.963 317.061 317.536C317.692 315.066 317.941 312.494 318.603 310.035C319.422 306.991 321.494 305.559 324.651 305.894C327.837 306.232 328.627 308.437 328.928 311.244C329.85 319.847 327.029 326.712 319.853 331.468C312.363 336.433 304.659 336.846 297.323 331.343C294.186 328.99 292.193 329.941 289.365 331.799C283.05 335.948 276.192 336.866 269.379 332.975C262.15 328.847 257.882 322.595 257.734 313.951C257.671 310.21 258.348 306.398 262.97 305.99C267.288 305.609 267.914 309.191 268.567 312.461C268.901 314.131 269.163 315.832 269.68 317.446C271.015 321.618 273.915 324.269 278.212 324.103C282.445 323.939 285.235 321.374 286.184 316.912C286.831 313.87 286.79 310.815 286.963 307.749C287.126 304.846 286.148 302.887 283.65 301.465C281.118 300.023 279.085 297.992 277.844 294.789Z" fill="black"/>
<path d="M585.82 277.579C585.908 296.865 586.707 315.689 584.046 334.378C576.398 388.088 556.178 436.195 521.274 477.436C480.731 525.339 430.436 557.958 370.54 574.949C345.729 581.988 320.365 586.281 294.601 585.986C239.081 585.349 187.214 570.87 139.484 541.629C101.627 518.438 69.7462 488.765 45.5652 451.022C22.6192 415.206 7.53748 376.302 2.39496 333.561C0.757389 319.951 -0.0519728 306.268 0.00258519 292.699C0.163785 252.619 8.64682 214.168 24.6254 177.456C48.3718 122.898 85.2896 79.6804 134.29 47.4065C166.751 26.0261 202.485 12.2913 240.589 5.18971C258.271 1.89415 276.078 -0.20562 294.082 0.0159918C343.313 0.621966 389.661 12.6355 433.085 36.3585C482.16 63.1683 520.437 101.275 548.324 150.231C567.066 183.133 578.638 218.585 584.157 256.164C585.179 263.123 584.897 270.142 585.82 277.579ZM431.115 180.937C432.688 189.654 434.785 198.314 435.704 207.101C436.945 218.974 437.375 230.94 437.984 242.874C439.195 266.612 440.125 290.412 437.755 314.078C434.964 341.94 421.016 363.111 397.706 377.926C396.314 378.811 393.859 380.035 394.925 381.565C398.712 387.001 397.604 394.133 401.349 399.426C403.091 401.888 403.676 404.683 404.313 407.49C408.495 425.938 412.771 444.371 413.698 463.388C413.848 466.458 415.425 467.924 418.543 468.008C427.103 468.239 435.658 468.86 444.217 468.909C464.542 469.025 484.868 469.122 505.186 468.13C509.042 467.942 511.877 466.719 514.355 463.795C520.194 456.906 525.137 449.367 529.956 441.75C555.791 400.911 570.495 356.504 571.421 307.657C571.908 281.972 571.133 256.487 564.737 231.374C555.404 194.732 540.25 161.071 518.11 130.538C503.224 110.01 485.332 92.5513 466.227 76.4158C457.279 68.8577 447.29 62.4066 437.189 56.2564C400.572 33.9623 361.113 19.8224 318.69 16.5105C286.218 13.9756 253.724 15.6412 221.856 24.8073C179.327 37.0395 141.38 57.2944 107.921 86.792C96.2008 97.1251 85.7417 108.499 75.8467 120.43C61.3902 137.861 50.6354 157.82 40.1923 177.901C34.1947 189.434 31.3294 202.163 26.9793 214.328C17.6602 240.386 14.5486 267.494 14.4227 294.84C14.3112 319.063 16.7049 343.18 23.7046 366.662C30.3014 388.792 38.2721 410.268 49.9156 430.163C56.6018 441.587 63.1254 453.164 71.5274 463.447C73.452 465.802 75.381 467.854 78.9336 468.053C108.319 469.695 137.698 468.904 167.082 468.177C170.831 468.085 172.696 466.564 172.962 462.819C173.786 451.214 176.278 439.873 178.356 428.474C179.038 424.732 179.579 421.174 177.67 417.99C178.523 415.601 181.519 415.799 181.84 413.366C182.775 406.268 185.614 399.717 187.703 392.964C188.701 389.739 188.849 386.84 187.478 384.127C188.449 382.498 190.843 383.065 190.824 380.494C188.659 376.767 183.693 376.767 180.724 373.789C172.22 365.259 163.809 356.606 157.999 345.872C153.205 337.016 148.253 327.559 148.219 317.563C148.054 269.105 145.919 220.456 156.954 172.686C159.487 161.721 161.888 150.709 165.888 140.155C167.102 136.95 168.96 134.864 172.719 135.726C189.903 139.666 205.459 147.63 220.899 155.887C231.375 161.489 239.951 169.865 249.809 176.373C252.482 178.138 255.033 178.977 258.31 178.105C280.814 172.121 303.434 172.526 326.067 177.303C330.698 178.281 334.679 177.961 338.718 174.851C345.943 169.286 353.416 164.007 361.099 159.117C377.274 148.822 394.469 140.794 413.071 136.079C416.374 135.242 419.245 135.148 420.471 138.978C424.783 152.453 428.864 165.997 431.115 180.937ZM406.133 264.688C397.037 249.415 386.673 235.182 373.423 223.307C357.743 209.255 340.465 198.09 320.201 192.062C316.297 190.901 314.239 191.227 313.443 195.654C312.843 198.992 311.775 202.258 310.731 205.494C309.982 207.816 308.845 210.329 305.91 209.752C302.496 209.081 302.935 205.981 303.226 203.499C303.642 199.952 304.509 196.462 305.066 192.929C305.476 190.327 304.667 188.594 301.686 188.514C298.951 188.441 297.665 189.598 297.685 192.448C297.711 196.206 297.769 199.985 297.416 203.717C297.195 206.06 296.498 208.823 293.396 208.676C290.506 208.539 290.303 205.83 290.158 203.67C289.907 199.923 289.877 196.151 289.936 192.393C289.997 188.603 287.653 188.411 284.894 188.528C281.68 188.664 281.719 190.424 282.138 193.072C282.802 197.267 283.039 201.543 283.245 205.796C283.33 207.567 282.614 209.302 280.583 209.602C278.582 209.898 277.433 208.531 276.913 206.781C275.894 203.356 274.982 199.896 274.118 196.427C272.475 189.831 272.506 189.837 266.099 191.865C222.84 205.563 194.444 235.979 174.843 276.157C169.942 286.203 166.796 296.906 167.84 308.266C169.023 321.129 174.525 332.181 183.309 341.435C207.773 367.211 239.487 374.566 272.831 377.698C274.864 377.889 276.262 376.842 277.688 375.503C289.766 364.162 298.85 364.26 310.254 375.849C311.754 377.374 313.107 378.294 315.489 377.982C328.793 376.242 342.103 374.465 354.935 370.376C376.154 363.614 395.36 353.558 408.698 334.501C416.279 323.67 419.903 311.771 418.276 298.357C416.827 286.408 411.929 275.786 406.133 264.688ZM194.786 466.834C194.797 474.016 194.624 481.204 194.861 488.378C195.272 500.79 200.87 509.511 210.079 512.626C216.113 514.667 217.158 513.878 217.376 507.488C218.039 488.009 218.584 468.529 218.496 449.033C218.484 446.157 218.91 443.237 219.479 440.409C220.326 436.197 223.459 434.468 227.291 434.66C231.131 434.853 233.274 437.073 233.252 441.383C233.234 445.122 234.005 448.861 234.072 452.606C234.442 473.455 234.885 494.306 234.882 515.156C234.882 520.643 236.774 524.799 240.366 528.345C245.52 533.435 251.663 534.809 258.478 532.369C264.344 530.269 268.557 523.987 268.84 517.405C269.493 502.204 270.079 487.003 269.906 471.78C269.876 469.072 270.344 466.343 270.747 463.649C271.393 459.33 274.137 457.63 278.23 457.739C282.174 457.845 284.557 459.585 284.775 463.863C284.906 466.415 285.419 468.956 285.44 471.504C285.55 484.843 285.526 498.184 285.63 511.523C285.648 513.856 285.069 516.287 286.24 518.609C289.61 519.715 292.918 518.278 296.218 518.473C299.893 518.691 301.245 517.169 301.287 513.41C301.428 500.765 301.923 488.123 302.078 475.477C302.126 471.519 302.648 467.65 303.101 463.752C303.511 460.219 305.381 458.143 308.902 457.785C312.521 457.418 315.235 458.941 316.487 462.386C317.595 465.435 317.837 468.694 317.827 471.979C317.791 484.976 317.884 497.974 317.838 510.971C317.827 514.073 318.135 517.096 318.802 520.11C320.531 527.916 326.654 533.34 333.988 533.512C342.632 533.713 349.266 528.932 351.484 520.949C352.221 518.295 352.484 515.612 352.519 512.854C352.815 489.606 353.147 466.358 353.522 443.112C353.601 438.206 356.515 434.666 360.366 434.47C364.346 434.268 367.727 437.161 368.56 441.799C369.009 444.302 369.206 446.883 369.215 449.431C369.284 469.27 369.366 489.11 369.227 508.948C369.197 513.216 370.42 514.281 374.546 513.337C384.1 511.151 391.662 502.629 391.772 492.65C391.981 473.693 392.493 454.703 389.738 435.858C387.638 421.497 384.6 407.348 379.941 393.593C378.941 390.641 378.024 388.226 373.967 389.639C356.548 395.703 338.669 399.13 320.18 399.007C315.936 398.979 312.23 400.307 308.87 403.569C298.698 413.445 285.902 412.648 276.596 401.849C274.753 399.71 272.818 398.768 270.07 398.861C251.255 399.501 233.013 396.11 215.054 390.684C208.903 388.826 208.623 389.059 206.443 395.428C198.642 418.221 195.62 441.837 194.786 466.834ZM375.09 202.915C387.916 212.002 395.865 225.753 406.312 237.174C408.227 235.597 407.716 233.619 407.925 231.826C408.564 226.331 407.153 220.973 406.813 215.547C406.165 205.184 405.049 194.839 403.733 184.539C403.005 178.846 396.852 174.723 392.364 176.467C383.113 180.06 374.682 185.297 366.159 190.332C364.9 191.075 363.511 191.896 363.534 193.55C367.294 196.581 370.922 199.507 375.09 202.915ZM209.909 204.317C214.377 200.888 218.845 197.46 223.898 193.582C213.335 186.805 203.673 180.165 192.258 176.834C186.462 175.143 181.984 179.054 181.684 185.245C181.092 197.449 179.791 209.617 179.2 221.82C178.955 226.873 176.193 232.029 179.641 238.259C188.808 225.812 197.193 213.474 209.909 204.317Z" fill="black"/>
</svg>
