<svg width="50" height="50" viewBox="0 0 50 50" fill="none" xmlns="http://www.w3.org/2000/svg">
<path d="M49.9847 23.6842C49.9921 25.3298 50.0604 26.9359 49.8333 28.5306C49.1807 33.1133 47.4555 37.218 44.4773 40.7368C41.018 44.8241 36.7266 47.6073 31.6161 49.0571C29.4991 49.6577 27.3349 50.024 25.1366 49.9988C20.3994 49.9445 15.9739 48.709 11.9014 46.2141C8.67124 44.2353 5.95104 41.7035 3.88782 38.4831C1.92997 35.4271 0.64313 32.1077 0.204349 28.4608C0.0646237 27.2995 -0.00443454 26.1321 0.00022058 24.9743C0.0139748 21.5545 0.737783 18.2737 2.10114 15.1413C4.12729 10.4861 7.27727 6.79867 11.4582 4.04493C14.2279 2.22066 17.2769 1.04875 20.528 0.442808C22.0368 0.161617 23.5562 -0.0175444 25.0923 0.00136449C29.2929 0.0530688 33.2475 1.07812 36.9527 3.10226C41.1399 5.38979 44.4059 8.64122 46.7853 12.8183C48.3845 15.6257 49.3718 18.6506 49.8427 21.857C49.9299 22.4508 49.9059 23.0497 49.9847 23.6842ZM36.7846 15.4383C36.9187 16.1821 37.0977 16.921 37.1761 17.6708C37.282 18.6838 37.3187 19.7047 37.3706 20.723C37.474 22.7485 37.5533 24.7792 37.3511 26.7985C37.113 29.1757 35.9228 30.9821 33.934 32.2463C33.8152 32.3218 33.6057 32.4262 33.6967 32.5568C34.0198 33.0206 33.9253 33.6291 34.2448 34.0807C34.3934 34.2908 34.4434 34.5293 34.4977 34.7687C34.8545 36.3428 35.2194 37.9156 35.2985 39.5382C35.3113 39.8002 35.4459 39.9253 35.7119 39.9324C36.4423 39.9522 37.1722 40.0051 37.9025 40.0093C39.6367 40.0192 41.371 40.0275 43.1046 39.9428C43.4336 39.9268 43.6755 39.8224 43.8869 39.573C44.3852 38.9851 44.8069 38.3419 45.2181 37.692C47.4224 34.2074 48.677 30.4184 48.7561 26.2506C48.7976 24.0591 48.7315 21.8846 48.1857 19.7418C47.3894 16.6154 46.0964 13.7433 44.2073 11.1381C42.9372 9.38653 41.4106 7.89687 39.7805 6.52012C39.017 5.87523 38.1647 5.3248 37.3028 4.80004C34.1785 2.8978 30.8117 1.69133 27.192 1.40875C24.4214 1.19245 21.6488 1.33457 18.9297 2.11667C15.301 3.16037 12.0631 4.8886 9.20831 7.40546C8.20826 8.28712 7.31584 9.25756 6.47156 10.2756C5.23807 11.7629 4.32043 13.4659 3.42938 15.1793C2.91764 16.1633 2.67316 17.2494 2.30199 18.2873C1.50684 20.5108 1.24135 22.8238 1.23061 25.157C1.22109 27.2238 1.42533 29.2816 2.02257 31.2851C2.58545 33.1734 3.26553 35.0058 4.25901 36.7033C4.82951 37.6781 5.38613 38.6658 6.10302 39.5432C6.26724 39.7442 6.43183 39.9193 6.73495 39.9363C9.24227 40.0764 11.7489 40.0088 14.2562 39.9469C14.576 39.939 14.7352 39.8092 14.7579 39.4896C14.8282 38.4995 15.0408 37.5318 15.2181 36.5593C15.2763 36.2399 15.3224 35.9364 15.1595 35.6647C15.2324 35.4608 15.488 35.4777 15.5153 35.2701C15.5951 34.6645 15.8374 34.1056 16.0156 33.5294C16.1008 33.2542 16.1134 33.0068 15.9964 32.7753C16.0793 32.6363 16.2836 32.6847 16.2819 32.4654C16.0972 32.1473 15.6735 32.1474 15.4201 31.8932C14.6946 31.1655 13.9769 30.4271 13.4811 29.5112C13.0721 28.7557 12.6495 27.9487 12.6466 27.0958C12.6326 22.9612 12.4504 18.8103 13.392 14.7343C13.6081 13.7987 13.813 12.8591 14.1542 11.9586C14.2579 11.6852 14.4164 11.5071 14.7372 11.5807C16.2034 11.9169 17.5306 12.5964 18.848 13.3009C19.7419 13.7789 20.4736 14.4936 21.3148 15.0489C21.5429 15.1995 21.7605 15.271 22.0401 15.1967C23.9602 14.6861 25.8903 14.7206 27.8214 15.1283C28.2165 15.2117 28.5562 15.1844 28.9008 14.919C29.5173 14.4442 30.155 13.9938 30.8105 13.5766C32.1906 12.6981 33.6578 12.0131 35.245 11.6108C35.5268 11.5394 35.7717 11.5314 35.8763 11.8582C36.2443 13.0079 36.5925 14.1636 36.7846 15.4383ZM34.653 22.5843C33.8769 21.2811 32.9926 20.0668 31.862 19.0535C30.5241 17.8545 29.0499 16.9019 27.3209 16.3875C26.9878 16.2884 26.8122 16.3163 26.7443 16.694C26.6931 16.9788 26.6019 17.2575 26.5129 17.5336C26.449 17.7318 26.3519 17.9462 26.1015 17.897C25.8102 17.8397 25.8477 17.5752 25.8725 17.3634C25.908 17.0608 25.982 16.763 26.0295 16.4615C26.0645 16.2395 25.9955 16.0916 25.7411 16.0848C25.5078 16.0786 25.3981 16.1773 25.3997 16.4204C25.402 16.7411 25.4069 17.0636 25.3768 17.382C25.3579 17.5819 25.2985 17.8177 25.0338 17.8051C24.7872 17.7934 24.7699 17.5623 24.7575 17.378C24.7361 17.0583 24.7335 16.7365 24.7386 16.4158C24.7438 16.0924 24.5438 16.076 24.3083 16.086C24.0342 16.0976 24.0375 16.2478 24.0732 16.4737C24.1298 16.8316 24.1501 17.1965 24.1676 17.5593C24.1749 17.7105 24.1138 17.8585 23.9405 17.8842C23.7698 17.9094 23.6718 17.7927 23.6274 17.6434C23.5404 17.3512 23.4626 17.056 23.3889 16.76C23.2487 16.1972 23.2513 16.1977 22.7047 16.3708C19.0136 17.5395 16.5908 20.1347 14.9183 23.5629C14.5002 24.42 14.2317 25.3333 14.3208 26.3026C14.4217 27.4001 14.8913 28.3431 15.6407 29.1327C17.728 31.332 20.434 31.9596 23.2791 32.2268C23.4526 32.2431 23.5718 32.1538 23.6935 32.0395C24.724 31.0718 25.4991 31.0802 26.4721 32.069C26.6002 32.1991 26.7156 32.2777 26.9189 32.2511C28.054 32.1026 29.1897 31.951 30.2846 31.6021C32.0951 31.0251 33.7338 30.167 34.8718 28.541C35.5187 27.6169 35.8279 26.6016 35.6891 25.4571C35.5654 24.4375 35.1476 23.5312 34.653 22.5843ZM16.62 39.8322C16.6209 40.445 16.6061 41.0584 16.6264 41.6705C16.6614 42.7295 17.1391 43.4737 17.9248 43.7394C18.4397 43.9136 18.5289 43.8463 18.5474 43.301C18.604 41.639 18.6505 39.9769 18.643 38.3134C18.6419 38.068 18.6784 37.8188 18.7269 37.5775C18.7991 37.2182 19.0665 37.0706 19.3934 37.087C19.7211 37.1035 19.9039 37.2929 19.9021 37.6607C19.9005 37.9797 19.9663 38.2987 19.972 38.6183C20.0036 40.3972 20.0413 42.1763 20.0412 43.9553C20.0411 44.4234 20.2026 44.778 20.509 45.0807C20.9488 45.5149 21.473 45.6321 22.0544 45.424C22.5549 45.2448 22.9144 44.7087 22.9386 44.1472C22.9943 42.8501 23.0442 41.5532 23.0295 40.2542C23.0269 40.0232 23.0669 39.7903 23.1013 39.5605C23.1564 39.192 23.3905 39.0469 23.7398 39.0563C24.0763 39.0653 24.2796 39.2137 24.2982 39.5787C24.3093 39.7965 24.3531 40.0133 24.3549 40.2307C24.3643 41.3689 24.3623 42.5072 24.3712 43.6453C24.3727 43.8444 24.3233 44.0518 24.4232 44.25C24.7108 44.3443 24.993 44.2217 25.2746 44.2383C25.5882 44.2569 25.7035 44.1271 25.7071 43.8064C25.7191 42.7274 25.7614 41.6487 25.7746 40.5697C25.7787 40.232 25.8232 39.9019 25.8618 39.5693C25.8969 39.2678 26.0564 39.0907 26.3568 39.0602C26.6656 39.0288 26.8972 39.1588 27.004 39.4527C27.0986 39.7129 27.1192 39.991 27.1184 40.2712C27.1153 41.3802 27.1232 42.4892 27.1193 43.5982C27.1184 43.8629 27.1446 44.1208 27.2015 44.378C27.3491 45.044 27.8715 45.5069 28.4972 45.5215C29.2348 45.5387 29.8008 45.1307 29.9901 44.4496C30.053 44.2231 30.0754 43.9942 30.0784 43.7589C30.1036 41.7753 30.132 39.7917 30.164 37.8082C30.1707 37.3896 30.4193 37.0875 30.7479 37.0708C31.0876 37.0536 31.376 37.3004 31.4471 37.6962C31.4854 37.9097 31.5022 38.13 31.503 38.3473C31.5088 40.0401 31.5158 41.7329 31.504 43.4256C31.5014 43.7897 31.6058 43.8807 31.9578 43.8001C32.7731 43.6136 33.4182 42.8864 33.4276 42.035C33.4455 40.4175 33.4891 38.7972 33.2541 37.1892C33.0749 35.9639 32.8157 34.7567 32.4182 33.583C32.3329 33.3312 32.2546 33.1251 31.9084 33.2456C30.4222 33.7631 28.8967 34.0555 27.3191 34.045C26.957 34.0426 26.6408 34.1559 26.3541 34.4342C25.4862 35.2769 24.3944 35.2089 23.6003 34.2874C23.4431 34.1049 23.278 34.0245 23.0435 34.0325C21.4381 34.0871 19.8817 33.7978 18.3493 33.3348C17.8245 33.1763 17.8006 33.1961 17.6146 33.7396C16.949 35.6844 16.6911 37.6994 16.62 39.8322ZM32.0043 17.3136C33.0986 18.0889 33.7769 19.2622 34.6683 20.2367C34.8316 20.1021 34.7881 19.9333 34.8059 19.7804C34.8605 19.3116 34.74 18.8544 34.711 18.3913C34.6557 17.5072 34.5605 16.6245 34.4482 15.7457C34.3861 15.2599 33.8611 14.9081 33.4782 15.0569C32.6888 15.3635 31.9694 15.8103 31.2422 16.2399C31.1348 16.3034 31.0163 16.3734 31.0183 16.5145C31.3391 16.7731 31.6486 17.0227 32.0043 17.3136ZM17.9103 17.4332C18.2915 17.1406 18.6727 16.8481 19.1039 16.5173C18.2027 15.939 17.3783 15.3724 16.4043 15.0883C15.9097 14.944 15.5277 15.2777 15.502 15.8059C15.4515 16.8472 15.3406 17.8854 15.2901 18.9267C15.2692 19.3578 15.0335 19.7977 15.3277 20.3293C16.1099 19.2672 16.8254 18.2145 17.9103 17.4332Z" fill="#F5F5F5"/>
</svg>
