<svg width="32" height="32" viewBox="0 0 32 32" fill="none" xmlns="http://www.w3.org/2000/svg">
<path fill-rule="evenodd" clip-rule="evenodd" d="M16 29C18.2822 29.0033 20.5247 28.403 22.5 27.26V23C22.5 21.8065 22.0259 20.6619 21.182 19.818C20.3381 18.9741 19.1935 18.5 18 18.5H14C12.8065 18.5 11.6619 18.9741 10.818 19.818C9.97411 20.6619 9.5 21.8065 9.5 23V27.26C11.4753 28.403 13.7178 29.0033 16 29ZM25.5 23V24.874C27.2294 23.0226 28.3802 20.7063 28.8108 18.2097C29.2415 15.7131 28.9332 13.145 27.924 10.8212C26.9148 8.49747 25.2485 6.51923 23.1301 5.12969C21.0117 3.74015 18.5335 2.99988 16 2.99988C13.4665 2.99988 10.9883 3.74015 8.86986 5.12969C6.75145 6.51923 5.08522 8.49747 4.076 10.8212C3.06678 13.145 2.75854 15.7131 3.18919 18.2097C3.61983 20.7063 4.77059 23.0226 6.5 24.874V23C6.4994 21.4536 6.97682 19.9449 7.86688 18.6803C8.75693 17.4158 10.0161 16.4572 11.472 15.936C10.7168 15.0673 10.2274 13.9997 10.0621 12.8606C9.89691 11.7214 10.0628 10.5588 10.5402 9.51137C11.0175 8.46392 11.786 7.57588 12.7541 6.95317C13.7222 6.33045 14.8489 5.99935 16 5.99935C17.1511 5.99935 18.2778 6.33045 19.2459 6.95317C20.214 7.57588 20.9825 8.46392 21.4598 9.51137C21.9372 10.5588 22.1031 11.7214 21.9379 12.8606C21.7726 13.9997 21.2832 15.0673 20.528 15.936C21.9839 16.4572 23.2431 17.4158 24.1331 18.6803C25.0232 19.9449 25.5006 21.4536 25.5 23ZM16 32C20.2435 32 24.3131 30.3143 27.3137 27.3137C30.3143 24.3131 32 20.2435 32 16C32 11.7565 30.3143 7.68687 27.3137 4.68629C24.3131 1.68571 20.2435 0 16 0C11.7565 0 7.68687 1.68571 4.68629 4.68629C1.68571 7.68687 0 11.7565 0 16C0 20.2435 1.68571 24.3131 4.68629 27.3137C7.68687 30.3143 11.7565 32 16 32ZM19 12C19 12.7956 18.6839 13.5587 18.1213 14.1213C17.5587 14.6839 16.7956 15 16 15C15.2044 15 14.4413 14.6839 13.8787 14.1213C13.3161 13.5587 13 12.7956 13 12C13 11.2044 13.3161 10.4413 13.8787 9.87868C14.4413 9.31607 15.2044 9 16 9C16.7956 9 17.5587 9.31607 18.1213 9.87868C18.6839 10.4413 19 11.2044 19 12Z" fill="#F5F5F5"/>
</svg>
